<?xml version="1.0" encoding="utf-8"?>
<!-- Generator: Adobe Illustrator 19.2.0, SVG Export Plug-In . SVG Version: 6.00 Build 0)  -->
<svg version="1.1" xmlns="http://www.w3.org/2000/svg" xmlns:xlink="http://www.w3.org/1999/xlink" x="0px" y="0px"
	 viewBox="0 0 95.8 95.8" style="enable-background:new 0 0 95.8 95.8;" xml:space="preserve">
<style type="text/css">
	.st0{display:none;}
	.st1{display:none;opacity:0.5;}
</style>
<g id="Layer_1">
</g>
<g id="Inhibitor">
	<g>
		<rect x="34.4" y="33.3" transform="matrix(0.7071 -0.7071 0.7071 0.7071 -19.5415 48.6078)" width="29.1" height="29.1"/>
		<path d="M47.9,0C21.4,0,0,21.4,0,47.9s21.4,47.9,47.9,47.9c26.5,0,47.9-21.4,47.9-47.9S74.3,0,47.9,0z M48.9,80.1
			c-17.8,0-32.2-14.4-32.2-32.2c0-17.8,14.4-32.2,32.2-32.2s32.2,14.4,32.2,32.2C81.1,65.7,66.7,80.1,48.9,80.1z"/>
	</g>
	<g id="_x37_9w6xB.tif" class="st0">
		
			<image style="display:inline;overflow:visible;" width="98" height="98" id="Layer_0_7_" xlink:href="BC03CF010AE69EEE.png"  transform="matrix(1 0 0 1 -9.588478e-02 -1.2207)">
		</image>
	</g>
</g>
<g id="Support">
</g>
<g id="Jungle">
</g>
<g id="Top">
</g>
<g id="Bot">
</g>
<g id="Mid">
</g>
<g id="Baron">
</g>
<g id="Dragon">
</g>
<g id="Riftherald">
</g>
<g id="Tower">
</g>
</svg>
