<?xml version="1.0" encoding="utf-8"?>
<!-- Generator: Adobe Illustrator 19.2.0, SVG Export Plug-In . SVG Version: 6.00 Build 0)  -->
<svg version="1.1" xmlns="http://www.w3.org/2000/svg" xmlns:xlink="http://www.w3.org/1999/xlink" x="0px" y="0px"
	 viewBox="0 0 103.1 123.9" style="enable-background:new 0 0 103.1 123.9;" xml:space="preserve">
<style type="text/css">
	.st0{display:none;}
	.st1{display:none;opacity:0.5;}
</style>
<g id="Layer_1">
</g>
<g id="Inhibitor">
</g>
<g id="Support">
</g>
<g id="Jungle">
	<path d="M55.1,123.7c-3.5-4.3-21.5-25.5-37.1-33.5c-0.1-0.1-0.2-0.2-0.2-0.3C14.6,73.2,8.4,54.3,0.1,41.2c-0.2-0.4,0.1-0.8,0.5-0.7
		c11.4,3.3,20.2,10.1,26,22.2c0.2,0.5,0.9,0.3,0.9-0.2C27.2,54,25.4,23.8,14.2,0.7c-0.2-0.5,0.3-0.9,0.7-0.6
		c27.9,21.3,54.7,63,41,123.4C55.9,123.9,55.4,124,55.1,123.7z"/>
	<path d="M67.9,61.5c2.5-7.3,16.2-45.8,22-54.9c0.2-0.3-0.2-0.7-0.5-0.4C83,10.7,63.8,25.8,60.5,41.3c0,0.1,0,0.2,0,0.2
		c0.5,0.9,4.6,8.4,6.7,19.9C67.3,61.7,67.8,61.8,67.9,61.5z"/>
	<path d="M69.9,73.9c0,0,2,16.9-1.2,36c0,0.2,0.1,0.3,0.3,0.1c2-2.2,12.3-13.7,23-23.5c0,0,0,0,0,0c0-0.1-0.4-21.8,11.1-51.2
		c0.1-0.2-0.1-0.5-0.3-0.4C95.1,37.7,74.5,64.4,69.9,73.9z"/>
</g>
<g id="Top">
</g>
<g id="Bot">
</g>
<g id="Mid">
</g>
<g id="Baron">
</g>
<g id="Dragon">
</g>
<g id="Riftherald">
</g>
<g id="Tower">
</g>
</svg>
