<?xml version="1.0" encoding="utf-8"?>
<!-- Generator: Adobe Illustrator 19.2.0, SVG Export Plug-In . SVG Version: 6.00 Build 0)  -->
<svg version="1.1" xmlns="http://www.w3.org/2000/svg" xmlns:xlink="http://www.w3.org/1999/xlink" x="0px" y="0px"
	 viewBox="0 0 109.1 107.3" style="enable-background:new 0 0 109.1 107.3;" xml:space="preserve">
<style type="text/css">
	.st0{display:none;}
	.st1{display:none;opacity:0.5;}
</style>
<g id="Layer_1">
</g>
<g id="Inhibitor">
</g>
<g id="Support">
</g>
<g id="Jungle">
</g>
<g id="Top">
</g>
<g id="Bot">
</g>
<g id="Mid">
</g>
<g id="Baron">
	<g id="lKb9NU.tif" class="st0">
		
			<image style="display:inline;overflow:visible;" width="112" height="112" id="Layer_0_8_" xlink:href="BBE222CE22AD4DCA.png"  transform="matrix(1 0 0 1 -1.4575 -6.5939)">
		</image>
	</g>
	<path d="M109,18.9C97.7,9,82.9,2.1,66.5,0c9.6,4.1,16.8,13.1,19,24.1c-5.1,6-11.7,10.6-19.3,12.8c-5.3-3.7-11.7-10.6-11.7-10.6
		s-5.1,6.9-10.4,10.6c-8.1-2.4-15.1-7.4-20.3-14.1C26.3,12.8,33,4.5,41.8,0.4C25.5,3,11,10.3,0,20.6c0,0.3,0,0.6,0,0.9
		c0,12.7,6.5,24.1,16.9,32.2c3.2,25.4,13.3,45.7,26.3,53.6c-2-4.4-3.4-9.8-4-15.9c4.8,2.4,10.3,3.8,16,3.8s11.2-1.4,16-3.8
		c-0.6,6.1-2.1,11.5-4,15.9c13.2-8,23.3-28.8,26.4-54.7c9.6-8,15.5-19,15.5-31.1C109.1,20.6,109,19.8,109,18.9z M41.1,70.2
		c-3.7,0-6.7-3-6.7-6.7c0-3.7,3-6.7,6.7-6.7c3.7,0,6.7,3,6.7,6.7C47.7,67.2,44.7,70.2,41.1,70.2z M54.5,84.7c-3.7,0-6.7-3-6.7-6.7
		c0-3.7,3-6.7,6.7-6.7c3.7,0,6.7,3,6.7,6.7C61.2,81.7,58.2,84.7,54.5,84.7z M55.5,56.7c-3.7,0-6.7-3-6.7-6.7c0-3.7,3-6.7,6.7-6.7
		c3.7,0,6.7,3,6.7,6.7C62.2,53.7,59.2,56.7,55.5,56.7z M69,71.2c-3.7,0-6.7-3-6.7-6.7c0-3.7,3-6.7,6.7-6.7c3.7,0,6.7,3,6.7,6.7
		S72.7,71.2,69,71.2z"/>
</g>
<g id="Dragon">
</g>
<g id="Riftherald">
</g>
<g id="Tower">
</g>
</svg>
