<?xml version="1.0" encoding="utf-8"?>
<!-- Generator: Adobe Illustrator 19.2.0, SVG Export Plug-In . SVG Version: 6.00 Build 0)  -->
<svg version="1.1" xmlns="http://www.w3.org/2000/svg" xmlns:xlink="http://www.w3.org/1999/xlink" x="0px" y="0px"
	 viewBox="0 0 160.1 160" style="enable-background:new 0 0 160.1 160;" xml:space="preserve">
<style type="text/css">
	.st0{display:none;}
	.st1{display:none;opacity:0.5;}
</style>
<g id="Layer_1">
</g>
<g id="Inhibitor">
</g>
<g id="Support">
	<g>
		<path d="M62.7,99l-7.6-38.1c0,0-40.6-14.5-42.4-60.9c0,0-33.8,38.7,9.1,82.5c0,0,16.5-10.9,26.8,8.4c-5,1.3-8.8,5.9-8.8,11.3
			c0,6.5,5.2,11.7,11.7,11.7c6.5,0,11.7-5.2,11.7-11.7C63.2,101,63,100,62.7,99L62.7,99z"/>
		<path d="M147.4,0C145.6,46.4,105,60.9,105,60.9L97.3,99l0,0c-0.3,1-0.4,2.1-0.4,3.2c0,6.5,5.2,11.7,11.7,11.7
			c6.5,0,11.7-5.2,11.7-11.7c0-5.4-3.7-10-8.8-11.3c10.2-19.2,26.8-8.4,26.8-8.4C181.2,38.7,147.4,0,147.4,0z"/>
		<path d="M85,75.4l16.8-41.3L90.6,6.9H69.5L58.3,34.1l16.8,41.3V120l-9,22.6l7.3,17.3l13.5-0.1l7-17.4l-9-21.5V75.4z M69.8,34.1
			l5.3-12.8H85l5.3,12.8L80.1,59.2L69.8,34.1z"/>
	</g>
	<g id="D1Uq3b.tif" class="st0">
		
			<image style="display:inline;overflow:visible;" width="160" height="160" id="Layer_0_13_" xlink:href="BC0C3A0DC4F4F337.png"  transform="matrix(1 0 0 1 6.070893e-02 3.475388e-05)">
		</image>
	</g>
</g>
<g id="Jungle">
</g>
<g id="Top">
</g>
<g id="Bot">
</g>
<g id="Mid">
</g>
<g id="Baron">
</g>
<g id="Dragon">
</g>
<g id="Riftherald">
</g>
<g id="Tower">
</g>
</svg>
