<?xml version="1.0" encoding="utf-8"?>
<!-- Generator: Adobe Illustrator 19.2.0, SVG Export Plug-In . SVG Version: 6.00 Build 0)  -->
<svg version="1.1" xmlns="http://www.w3.org/2000/svg" xmlns:xlink="http://www.w3.org/1999/xlink" x="0px" y="0px"
	 viewBox="0 0 103.9 104.4" style="enable-background:new 0 0 103.9 104.4;" xml:space="preserve">
<style type="text/css">
	.st0{display:none;}
	.st1{display:none;opacity:0.5;}
</style>
<g id="Layer_1">
</g>
<g id="Inhibitor">
</g>
<g id="Support">
</g>
<g id="Jungle">
</g>
<g id="Top">
</g>
<g id="Bot">
</g>
<g id="Mid">
</g>
<g id="Baron">
</g>
<g id="Dragon">
	<path class="st0" d="M46.8,104c0.2-0.2,0.3-0.4,0.5-0.6c0.2-0.2,0.3-0.3,0.5-0.5c0.2-0.2,0.4-0.4,0.6-0.6c0.2-0.2,0.3-0.3,0.5-0.5
		c0.2-0.2,0.4-0.4,0.6-0.6c0.2-0.1,0.3-0.3,0.5-0.4c0.2-0.2,0.5-0.4,0.7-0.5c0.2-0.1,0.3-0.2,0.5-0.3c0.2-0.2,0.5-0.3,0.7-0.5
		c1.2-0.8,2.5-1.5,3.8-2c5.6-6.1,8.9-14.3,8.9-23.2c0-19.1-15.5-34.6-34.6-34.6S-4.5,55.2-4.5,74.3c0,8.9,3.4,17.1,8.9,23.2
		c3.2,1.3,6.1,3.4,8.4,6c0.4,0.4,0.7,0.8,1.1,1.3c0.1,0.1,0.1,0.1,0.2,0.2c3,3.9,4.8,8.8,4.8,14.1c0,0.3,0,0.6,0,1h22.5
		c0-0.3,0-0.6,0-1c0-5.5,1.9-10.5,5.1-14.5C46.5,104.4,46.7,104.2,46.8,104z"/>
	<g id="_x34_tOb3s.tif" class="st0">
		
			<image style="display:inline;overflow:visible;" width="112" height="112" id="Layer_0_9_" xlink:href="BBFB63F450D84AA1.png"  transform="matrix(1 0 0 1 -25.701 11.3544)">
		</image>
	</g>
	<path d="M103.9,32.5l-19.4,0.2V6.5L65.4,26.1L52.2,0L39.2,26L19.8,6.5L19,32.7H0l19,19.5h0c-0.3,5.1-0.4,20,8.2,29
		c6.1,6.3,13.2,6.2,14.3,22.4c0,0.3,0,0.5,0.1,0.8h21c0-0.3,0-0.5,0.1-0.8c1-16.2,8.2-16.1,14.3-22.4c8.6-9,8.5-24.1,8.2-29.1
		L103.9,32.5z M44.9,73.3c0,0-16.8-8.7-17.6-21.2l17.6,11.2V73.3z M59,73.3v-10l17.6-11.2C75.8,64.6,59,73.3,59,73.3z"/>
</g>
<g id="Riftherald">
</g>
<g id="Tower">
</g>
</svg>
