<?xml version="1.0" encoding="utf-8"?>
<!-- Generator: Adobe Illustrator 19.2.0, SVG Export Plug-In . SVG Version: 6.00 Build 0)  -->
<svg version="1.1" xmlns="http://www.w3.org/2000/svg" xmlns:xlink="http://www.w3.org/1999/xlink" x="0px" y="0px"
	 viewBox="0 0 83.4 84.8" style="enable-background:new 0 0 83.4 84.8;" xml:space="preserve">
<style type="text/css">
	.st0{display:none;}
	.st1{display:none;opacity:0.5;}
</style>
<g id="Layer_1">
</g>
<g id="Inhibitor">
</g>
<g id="Support">
</g>
<g id="Jungle">
</g>
<g id="Top">
	<circle cx="41.9" cy="43.3" r="11.1"/>
	<path d="M0.3,9.1C0.2,31.9,0.1,54.8,0,77.6c0,9.7,15,9.7,15,0c0.1-22.8,0.2-45.6,0.3-68.5C15.3-0.5,0.3-0.6,0.3,9.1L0.3,9.1z"/>
	<path d="M76.1,0C53.3,0,30.5,0,7.7,0C-2,0-2,15,7.7,15c22.8,0,45.6,0,68.5,0C85.8,15,85.8,0,76.1,0L76.1,0z"/>
</g>
<g id="Bot">
</g>
<g id="Mid">
</g>
<g id="Baron">
</g>
<g id="Dragon">
</g>
<g id="Riftherald">
</g>
<g id="Tower">
</g>
</svg>
