<?xml version="1.0" encoding="utf-8"?>
<!-- Generator: Adobe Illustrator 19.2.0, SVG Export Plug-In . SVG Version: 6.00 Build 0)  -->
<svg version="1.1" xmlns="http://www.w3.org/2000/svg" xmlns:xlink="http://www.w3.org/1999/xlink" x="0px" y="0px"
	 viewBox="0 0 105.5 93.2" style="enable-background:new 0 0 105.5 93.2;" xml:space="preserve">
<style type="text/css">
	.st0{display:none;}
	.st1{display:none;opacity:0.5;}
</style>
<g id="Layer_1">
</g>
<g id="Inhibitor">
</g>
<g id="Support">
</g>
<g id="Jungle">
</g>
<g id="Top">
</g>
<g id="Bot">
</g>
<g id="Mid">
</g>
<g id="Baron">
</g>
<g id="Dragon">
</g>
<g id="Riftherald">
	<g id="zggF4Y.tif" class="st1">
		
			<image style="display:inline;overflow:visible;" width="112" height="99" id="Layer_0_10_" xlink:href="7CEAE07E6E378560.png"  transform="matrix(1 0 0 1 -5.8539 -2.9249)">
		</image>
	</g>
	<path d="M100.6,53.3C98.9,29.1,87.2,8.8,71,0c3,3.9,4.8,8.7,4.8,14c0,4.6-1.4,8.9-3.7,12.6c-5.4-3.9-12.1-6.1-19.3-6.1
		c-7.2,0-13.8,2.3-19.3,6.1c-2.4-3.6-3.7-7.9-3.7-12.6c0-5.3,1.8-10.1,4.8-14C18.3,8.8,6.6,29.1,4.9,53.2c6,1,11.3,4,15.3,8.2
		c3.4,14.8,16.7,25.8,32.5,25.8c15.6,0,28.6-10.7,32.3-25.1C89,57.6,94.4,54.4,100.6,53.3z M53.1,72.1c-2.5-0.1-9.3-4.1-12.9-8.2
		c-0.3-0.3-0.5-0.6-0.8-0.9c-0.1-0.1-0.2-0.2-0.3-0.4c-0.1-0.1-0.1-0.2-0.2-0.3c-0.2-0.3-0.3-0.5-0.5-0.8c-0.1-0.1-0.2-0.3-0.2-0.5
		c0-0.1-0.1-0.1-0.1-0.2c-0.1-0.1-0.1-0.2-0.2-0.4c0-0.1-0.1-0.2-0.1-0.3c-0.1-0.1-0.1-0.2-0.2-0.3c0-0.1-0.1-0.2-0.1-0.3
		c0-0.1-0.1-0.2-0.1-0.3c-0.1-0.1-0.1-0.3-0.2-0.4c0-0.1-0.1-0.2-0.1-0.3c-0.1-0.2-0.1-0.3-0.2-0.5c0-0.1-0.1-0.2-0.1-0.3
		c-0.1-0.2-0.1-0.4-0.2-0.5c0-0.1-0.1-0.2-0.1-0.3c-0.1-0.2-0.1-0.4-0.2-0.6c0,0,0-0.1,0-0.1c-0.4-1.4-0.8-2.9-1-4.6c0,0,0,0,0-0.1
		c0-0.3-0.1-0.6-0.1-0.9c0,0,0-0.1,0-0.1c0-0.3,0-0.6,0-0.9c0,0,0-0.1,0-0.1c0-0.3,0-0.6,0-1c0,0,0,0,0,0c0.1-2.7,0.7-5.3,2.4-7.5
		c0,0,0,0,0,0c0.2-0.3,0.4-0.5,0.7-0.8c0,0,0,0,0,0c0.2-0.3,0.5-0.5,0.8-0.7c0,0,0,0,0,0c1.7-1.5,4-2.6,7.2-3.3l0,0
		c1.9-0.4,4.1-0.6,6.6-0.6c2.4,0,4.4,0.2,6.2,0.6c0,0,0,0,0,0c0.6,0.1,1.1,0.3,1.6,0.4c0.2,0.1,0.3,0.1,0.5,0.2
		c0.3,0.1,0.7,0.2,1,0.3c0.2,0.1,0.4,0.2,0.5,0.2c0.3,0.1,0.5,0.2,0.8,0.4c0.2,0.1,0.3,0.2,0.5,0.3c0.2,0.1,0.5,0.3,0.7,0.4
		c0.2,0.1,0.3,0.2,0.5,0.3c0.2,0.1,0.4,0.3,0.6,0.5c0.1,0.1,0.3,0.2,0.4,0.4c0.2,0.2,0.3,0.3,0.5,0.5c0.1,0.1,0.2,0.2,0.4,0.4
		c0.2,0.2,0.3,0.4,0.4,0.5c0.1,0.1,0.2,0.3,0.3,0.4c0.1,0.2,0.3,0.4,0.4,0.6c0.1,0.1,0.2,0.2,0.2,0.4c0.1,0.2,0.3,0.5,0.4,0.7
		c0,0.1,0.1,0.2,0.1,0.3c0.2,0.3,0.3,0.7,0.4,1.1c0,0.1,0,0.2,0.1,0.2c0.1,0.3,0.2,0.6,0.3,0.9c0,0.1,0.1,0.3,0.1,0.4
		c0.1,0.2,0.1,0.5,0.1,0.7c0,0.2,0,0.3,0.1,0.5c0,0.2,0.1,0.4,0.1,0.7c0,0.2,0,0.3,0,0.5c0,0.2,0,0.4,0,0.7c0,0.2,0,0.3,0,0.5
		c0,0.2,0,0.4,0,0.6c0,0.2,0,0.3,0,0.5c0,0.2,0,0.4,0,0.6c0,0.2,0,0.3,0,0.5c0,0.2,0,0.4-0.1,0.7c0,0.1,0,0.3,0,0.4
		c0,0.2-0.1,0.5-0.1,0.7c0,0.1,0,0.3-0.1,0.4c0,0.3-0.1,0.6-0.1,0.8c0,0.1,0,0.1,0,0.2c-0.1,0.3-0.1,0.7-0.2,1c0,0.1,0,0.2-0.1,0.3
		c-0.1,0.2-0.1,0.4-0.2,0.7c0,0.1-0.1,0.2-0.1,0.3c0,0.2-0.1,0.4-0.1,0.5c0,0.1-0.1,0.2-0.1,0.3c0,0.2-0.1,0.3-0.1,0.5
		c0,0.1-0.1,0.2-0.1,0.3c0,0.1-0.1,0.3-0.1,0.4c0,0.1-0.1,0.2-0.1,0.3c0,0.1-0.1,0.3-0.1,0.4c0,0.1-0.1,0.2-0.1,0.3
		c0,0.1-0.1,0.2-0.1,0.3c0,0.1-0.1,0.1-0.1,0.2c0,0.1-0.1,0.2-0.1,0.3c0,0.1,0,0.1-0.1,0.2c0,0.1-0.1,0.2-0.1,0.2c0,0,0,0.1,0,0.1
		c0,0.1-0.1,0.2-0.1,0.2c-0.2,0.3-0.4,0.7-0.6,1c0,0,0,0,0,0.1c-0.2,0.3-0.5,0.6-0.8,1C62.6,67.9,55.7,72.2,53.1,72.1z"/>
	<polygon points="47.2,53.8 52.7,39.1 58.3,53.8 52.7,66.7 	"/>
	<path d="M0,78l13.1-11.3c0,0,5.4,19.5,6.7,23.5C20.8,93.2,14.7,98.6,0,78z"/>
	<path d="M105.5,78L92.4,66.7c0,0-5.4,19.5-6.7,23.5C84.7,93.2,90.8,98.6,105.5,78z"/>
</g>
<g id="Tower">
</g>
</svg>
