<?xml version="1.0" encoding="utf-8"?>
<!-- Generator: Adobe Illustrator 19.2.0, SVG Export Plug-In . SVG Version: 6.00 Build 0)  -->
<svg version="1.1" xmlns="http://www.w3.org/2000/svg" xmlns:xlink="http://www.w3.org/1999/xlink" x="0px" y="0px"
	 viewBox="0 0 88.9 87.9" style="enable-background:new 0 0 88.9 87.9;" xml:space="preserve">
<style type="text/css">
	.st0{display:none;}
	.st1{display:none;opacity:0.5;}
</style>
<g id="Layer_1">
</g>
<g id="Inhibitor">
</g>
<g id="Support">
</g>
<g id="Jungle">
</g>
<g id="Top">
</g>
<g id="Bot">
</g>
<g id="Mid">
	<path d="M65.2,87.9c5.4,0,10.8,0,16.2,0c9.7,0,9.7-15,0-15c-5.4,0-10.8,0-16.2,0C55.5,72.9,55.5,87.9,65.2,87.9L65.2,87.9z"/>
	<path d="M73.9,64.2c0,5.4,0,10.8,0,16.2c0,9.7,15,9.7,15,0c0-5.4,0-10.8,0-16.2C88.9,54.5,73.9,54.5,73.9,64.2L73.9,64.2z"/>
	<path d="M24.3,0C18.7,0,13.1,0,7.5,0c-9.7,0-9.7,15,0,15c5.6,0,11.2,0,16.8,0C33.9,15,33.9,0,24.3,0L24.3,0z"/>
	<path d="M15,24.3c0-5.6,0-11.2,0-16.8c0-9.7-15-9.7-15,0c0,5.6,0,11.2,0,16.8C0,33.9,15,33.9,15,24.3L15,24.3z"/>
	<path d="M73.5,3.7c-20,20.4-39.9,40.8-59.9,61.2c-2.9,3-5.8,5.9-8.7,8.9c-6.8,6.9,3.8,17.5,10.6,10.6c20-20.4,39.9-40.8,59.9-61.2
		c2.9-3,5.8-5.9,8.7-8.9C90.9,7.4,80.3-3.3,73.5,3.7L73.5,3.7z"/>
</g>
<g id="Baron">
</g>
<g id="Dragon">
</g>
<g id="Riftherald">
</g>
<g id="Tower">
</g>
</svg>
